<mxfile host="Electron" modified="2023-08-09T03:23:48.364Z" agent="Mozilla/5.0 (Windows NT 10.0; Win64; x64) AppleWebKit/537.36 (KHTML, like Gecko) draw.io/21.6.5 Chrome/114.0.5735.243 Electron/25.3.1 Safari/537.36" etag="LMTUNkBiEassdxDx2ARj" version="21.6.5" type="device">
  <diagram name="第 1 页" id="PdYbhn2oV3T3S4DyDjkk">
    <mxGraphModel dx="1036" dy="614" grid="1" gridSize="10" guides="1" tooltips="1" connect="1" arrows="1" fold="1" page="1" pageScale="1" pageWidth="827" pageHeight="1169" math="0" shadow="0">
      <root>
        <mxCell id="0" />
        <mxCell id="1" parent="0" />
        <mxCell id="1tA3rzychsuyHtGAXH-3-7" style="edgeStyle=orthogonalEdgeStyle;rounded=0;sketch=1;hachureGap=4;jiggle=2;curveFitting=1;orthogonalLoop=1;jettySize=auto;html=1;entryX=0;entryY=0.5;entryDx=0;entryDy=0;fontFamily=Architects Daughter;fontSource=https%3A%2F%2Ffonts.googleapis.com%2Fcss%3Ffamily%3DArchitects%2BDaughter;fontSize=16;" parent="1" source="1tA3rzychsuyHtGAXH-3-1" target="1tA3rzychsuyHtGAXH-3-2" edge="1">
          <mxGeometry relative="1" as="geometry" />
        </mxCell>
        <mxCell id="1tA3rzychsuyHtGAXH-3-8" style="edgeStyle=orthogonalEdgeStyle;rounded=0;sketch=1;hachureGap=4;jiggle=2;curveFitting=1;orthogonalLoop=1;jettySize=auto;html=1;exitX=1;exitY=0.5;exitDx=0;exitDy=0;entryX=0;entryY=0.5;entryDx=0;entryDy=0;fontFamily=Architects Daughter;fontSource=https%3A%2F%2Ffonts.googleapis.com%2Fcss%3Ffamily%3DArchitects%2BDaughter;fontSize=16;" parent="1" source="1tA3rzychsuyHtGAXH-3-1" target="1tA3rzychsuyHtGAXH-3-3" edge="1">
          <mxGeometry relative="1" as="geometry" />
        </mxCell>
        <mxCell id="1tA3rzychsuyHtGAXH-3-9" style="edgeStyle=orthogonalEdgeStyle;rounded=0;sketch=1;hachureGap=4;jiggle=2;curveFitting=1;orthogonalLoop=1;jettySize=auto;html=1;entryX=0;entryY=0.5;entryDx=0;entryDy=0;fontFamily=Architects Daughter;fontSource=https%3A%2F%2Ffonts.googleapis.com%2Fcss%3Ffamily%3DArchitects%2BDaughter;fontSize=16;" parent="1" source="1tA3rzychsuyHtGAXH-3-1" target="1tA3rzychsuyHtGAXH-3-4" edge="1">
          <mxGeometry relative="1" as="geometry" />
        </mxCell>
        <mxCell id="1tA3rzychsuyHtGAXH-3-10" style="edgeStyle=orthogonalEdgeStyle;rounded=0;sketch=1;hachureGap=4;jiggle=2;curveFitting=1;orthogonalLoop=1;jettySize=auto;html=1;exitX=1;exitY=0.5;exitDx=0;exitDy=0;entryX=-0.007;entryY=0.647;entryDx=0;entryDy=0;entryPerimeter=0;fontFamily=Architects Daughter;fontSource=https%3A%2F%2Ffonts.googleapis.com%2Fcss%3Ffamily%3DArchitects%2BDaughter;fontSize=16;" parent="1" source="1tA3rzychsuyHtGAXH-3-1" target="1tA3rzychsuyHtGAXH-3-5" edge="1">
          <mxGeometry relative="1" as="geometry" />
        </mxCell>
        <mxCell id="1tA3rzychsuyHtGAXH-3-11" style="edgeStyle=orthogonalEdgeStyle;rounded=0;sketch=1;hachureGap=4;jiggle=2;curveFitting=1;orthogonalLoop=1;jettySize=auto;html=1;entryX=0;entryY=0.75;entryDx=0;entryDy=0;fontFamily=Architects Daughter;fontSource=https%3A%2F%2Ffonts.googleapis.com%2Fcss%3Ffamily%3DArchitects%2BDaughter;fontSize=16;" parent="1" source="1tA3rzychsuyHtGAXH-3-1" target="1tA3rzychsuyHtGAXH-3-6" edge="1">
          <mxGeometry relative="1" as="geometry" />
        </mxCell>
        <mxCell id="1tA3rzychsuyHtGAXH-3-1" value="Spring对资源的定义" style="rounded=1;whiteSpace=wrap;html=1;sketch=1;hachureGap=4;jiggle=2;curveFitting=1;fontFamily=Architects Daughter;fontSource=https%3A%2F%2Ffonts.googleapis.com%2Fcss%3Ffamily%3DArchitects%2BDaughter;fontSize=20;fillColor=#e1d5e7;strokeColor=#9673a6;" parent="1" vertex="1">
          <mxGeometry x="310" y="300" width="150" height="50" as="geometry" />
        </mxCell>
        <mxCell id="1tA3rzychsuyHtGAXH-3-2" value="class类" style="rounded=1;whiteSpace=wrap;html=1;sketch=1;hachureGap=4;jiggle=2;curveFitting=1;fontFamily=Architects Daughter;fontSource=https%3A%2F%2Ffonts.googleapis.com%2Fcss%3Ffamily%3DArchitects%2BDaughter;fontSize=20;fillColor=#d5e8d4;strokeColor=#82b366;" parent="1" vertex="1">
          <mxGeometry x="600" y="80" width="120" height="60" as="geometry" />
        </mxCell>
        <mxCell id="1tA3rzychsuyHtGAXH-3-3" value="File文件" style="rounded=1;whiteSpace=wrap;html=1;sketch=1;hachureGap=4;jiggle=2;curveFitting=1;fontFamily=Architects Daughter;fontSource=https%3A%2F%2Ffonts.googleapis.com%2Fcss%3Ffamily%3DArchitects%2BDaughter;fontSize=20;fillColor=#ffe6cc;strokeColor=#d79b00;" parent="1" vertex="1">
          <mxGeometry x="600" y="200" width="120" height="60" as="geometry" />
        </mxCell>
        <mxCell id="1tA3rzychsuyHtGAXH-3-4" value="classpath" style="rounded=1;whiteSpace=wrap;html=1;sketch=1;hachureGap=4;jiggle=2;curveFitting=1;fontFamily=Architects Daughter;fontSource=https%3A%2F%2Ffonts.googleapis.com%2Fcss%3Ffamily%3DArchitects%2BDaughter;fontSize=20;fillColor=#f8cecc;strokeColor=#b85450;" parent="1" vertex="1">
          <mxGeometry x="600" y="320" width="120" height="60" as="geometry" />
        </mxCell>
        <mxCell id="1tA3rzychsuyHtGAXH-3-5" value="VFS资源" style="rounded=1;whiteSpace=wrap;html=1;sketch=1;hachureGap=4;jiggle=2;curveFitting=1;fontFamily=Architects Daughter;fontSource=https%3A%2F%2Ffonts.googleapis.com%2Fcss%3Ffamily%3DArchitects%2BDaughter;fontSize=20;fillColor=#dae8fc;strokeColor=#6c8ebf;" parent="1" vertex="1">
          <mxGeometry x="600" y="430" width="120" height="60" as="geometry" />
        </mxCell>
        <mxCell id="1tA3rzychsuyHtGAXH-3-6" value="......" style="rounded=1;whiteSpace=wrap;html=1;sketch=1;hachureGap=4;jiggle=2;curveFitting=1;fontFamily=Architects Daughter;fontSource=https%3A%2F%2Ffonts.googleapis.com%2Fcss%3Ffamily%3DArchitects%2BDaughter;fontSize=20;" parent="1" vertex="1">
          <mxGeometry x="600" y="544.5" width="120" height="60" as="geometry" />
        </mxCell>
        <mxCell id="1tA3rzychsuyHtGAXH-3-14" value="" style="edgeStyle=orthogonalEdgeStyle;rounded=0;sketch=1;hachureGap=4;jiggle=2;curveFitting=1;orthogonalLoop=1;jettySize=auto;html=1;fontFamily=Architects Daughter;fontSource=https%3A%2F%2Ffonts.googleapis.com%2Fcss%3Ffamily%3DArchitects%2BDaughter;fontSize=16;" parent="1" source="1tA3rzychsuyHtGAXH-3-12" target="1tA3rzychsuyHtGAXH-3-13" edge="1">
          <mxGeometry relative="1" as="geometry" />
        </mxCell>
        <mxCell id="1tA3rzychsuyHtGAXH-3-12" value="&lt;font style=&quot;font-size: 14px;&quot;&gt;1：我们首先想一下Java对资源的使用，最后是否都是以流的形式进行呈现&lt;/font&gt;" style="text;html=1;strokeColor=#6c8ebf;fillColor=#dae8fc;align=center;verticalAlign=middle;whiteSpace=wrap;rounded=0;fontSize=20;fontFamily=Architects Daughter;" parent="1" vertex="1">
          <mxGeometry x="790" y="80" width="490" height="30" as="geometry" />
        </mxCell>
        <mxCell id="1tA3rzychsuyHtGAXH-3-16" value="" style="edgeStyle=orthogonalEdgeStyle;rounded=0;sketch=1;hachureGap=4;jiggle=2;curveFitting=1;orthogonalLoop=1;jettySize=auto;html=1;fontFamily=Architects Daughter;fontSource=https%3A%2F%2Ffonts.googleapis.com%2Fcss%3Ffamily%3DArchitects%2BDaughter;fontSize=16;" parent="1" source="1tA3rzychsuyHtGAXH-3-13" target="1tA3rzychsuyHtGAXH-3-15" edge="1">
          <mxGeometry relative="1" as="geometry" />
        </mxCell>
        <mxCell id="1tA3rzychsuyHtGAXH-3-13" value="路径" style="rhombus;whiteSpace=wrap;html=1;fontSize=20;fontFamily=Architects Daughter;fillColor=#dae8fc;strokeColor=#6c8ebf;gradientColor=none;rounded=0;sketch=1;hachureGap=4;jiggle=2;curveFitting=1;fontSource=https%3A%2F%2Ffonts.googleapis.com%2Fcss%3Ffamily%3DArchitects%2BDaughter;" parent="1" vertex="1">
          <mxGeometry x="995" y="165" width="80" height="80" as="geometry" />
        </mxCell>
        <mxCell id="1tA3rzychsuyHtGAXH-3-18" value="" style="edgeStyle=orthogonalEdgeStyle;rounded=0;sketch=1;hachureGap=4;jiggle=2;curveFitting=1;orthogonalLoop=1;jettySize=auto;html=1;fontFamily=Architects Daughter;fontSource=https%3A%2F%2Ffonts.googleapis.com%2Fcss%3Ffamily%3DArchitects%2BDaughter;fontSize=16;" parent="1" source="1tA3rzychsuyHtGAXH-3-15" target="1tA3rzychsuyHtGAXH-3-17" edge="1">
          <mxGeometry relative="1" as="geometry" />
        </mxCell>
        <mxCell id="1tA3rzychsuyHtGAXH-3-15" value="加载" style="rhombus;whiteSpace=wrap;html=1;fontSize=20;fontFamily=Architects Daughter;fillColor=#dae8fc;strokeColor=#6c8ebf;gradientColor=none;rounded=0;sketch=1;hachureGap=4;jiggle=2;curveFitting=1;fontSource=https%3A%2F%2Ffonts.googleapis.com%2Fcss%3Ffamily%3DArchitects%2BDaughter;" parent="1" vertex="1">
          <mxGeometry x="995" y="300" width="80" height="80" as="geometry" />
        </mxCell>
        <mxCell id="1tA3rzychsuyHtGAXH-3-20" value="" style="edgeStyle=orthogonalEdgeStyle;rounded=0;sketch=1;hachureGap=4;jiggle=2;curveFitting=1;orthogonalLoop=1;jettySize=auto;html=1;fontFamily=Architects Daughter;fontSource=https%3A%2F%2Ffonts.googleapis.com%2Fcss%3Ffamily%3DArchitects%2BDaughter;fontSize=16;" parent="1" source="1tA3rzychsuyHtGAXH-3-17" target="1tA3rzychsuyHtGAXH-3-19" edge="1">
          <mxGeometry relative="1" as="geometry" />
        </mxCell>
        <mxCell id="1tA3rzychsuyHtGAXH-3-17" value="流" style="rhombus;whiteSpace=wrap;html=1;fontSize=20;fontFamily=Architects Daughter;fillColor=#dae8fc;strokeColor=#6c8ebf;gradientColor=none;rounded=0;sketch=1;hachureGap=4;jiggle=2;curveFitting=1;fontSource=https%3A%2F%2Ffonts.googleapis.com%2Fcss%3Ffamily%3DArchitects%2BDaughter;" parent="1" vertex="1">
          <mxGeometry x="995" y="440" width="80" height="80" as="geometry" />
        </mxCell>
        <mxCell id="1tA3rzychsuyHtGAXH-3-19" value="使用" style="rhombus;whiteSpace=wrap;html=1;fontSize=20;fontFamily=Architects Daughter;fillColor=#dae8fc;strokeColor=#6c8ebf;gradientColor=none;rounded=0;sketch=1;hachureGap=4;jiggle=2;curveFitting=1;fontSource=https%3A%2F%2Ffonts.googleapis.com%2Fcss%3Ffamily%3DArchitects%2BDaughter;" parent="1" vertex="1">
          <mxGeometry x="995" y="585" width="80" height="80" as="geometry" />
        </mxCell>
        <mxCell id="1tA3rzychsuyHtGAXH-3-23" style="edgeStyle=orthogonalEdgeStyle;rounded=0;sketch=1;hachureGap=4;jiggle=2;curveFitting=1;orthogonalLoop=1;jettySize=auto;html=1;entryX=0;entryY=0.5;entryDx=0;entryDy=0;fontFamily=Architects Daughter;fontSource=https%3A%2F%2Ffonts.googleapis.com%2Fcss%3Ffamily%3DArchitects%2BDaughter;fontSize=16;" parent="1" source="1tA3rzychsuyHtGAXH-3-21" target="1tA3rzychsuyHtGAXH-3-22" edge="1">
          <mxGeometry relative="1" as="geometry" />
        </mxCell>
        <mxCell id="1tA3rzychsuyHtGAXH-3-21" value="主要接口" style="rounded=1;whiteSpace=wrap;html=1;sketch=1;hachureGap=4;jiggle=2;curveFitting=1;fontFamily=Architects Daughter;fontSource=https%3A%2F%2Ffonts.googleapis.com%2Fcss%3Ffamily%3DArchitects%2BDaughter;fontSize=20;fillColor=#d5e8d4;strokeColor=#82b366;" parent="1" vertex="1">
          <mxGeometry x="390" y="845" width="120" height="60" as="geometry" />
        </mxCell>
        <mxCell id="1tA3rzychsuyHtGAXH-3-22" value="" style="shape=image;verticalLabelPosition=bottom;labelBackgroundColor=default;verticalAlign=top;aspect=fixed;imageAspect=0;image=data:image/png,iVBORw0KGgoAAAANSUhEUgAABT0AAAIUCAYAAADYCYh8AAAgAElEQVR4nOzdaXAd53kv+OccglgOiZWrSEoMSEqWrDLNRKQoUdfOxPFNREVyInviW3EmKVnxyB9TLrs8niov8lLlXFW5XP5olSOrlJsP9zoeRZvtuXMTl62QoiTacShrsblAlLiCBEAAxErgnPkAAiQIEAt5gG40fr8qlUjgnPd5u59uHvDPt7tzN23cVIoyaGqsi/aOrnIMlWiNDevXxrHjp+a0Rlb2lX4svhr6ka4a+pGuGvqRrhr6ka4a+pGuGvqRrhr6ka4a+pGuGvqRrhr6ka4a+jG9/JyMCgAAAACQEKEnAAAAAJApQk8AAAAAIFOEngAAAABApgg9AQAAAIBMEXoCAAAAAJki9AQAAAAAMkXoCQAAAABkitATAAAAAMgUoScAAAAAkClCTwAAAAAgU4SeAAAAAECmCD0BAAAAgEzJbdu2rZT0JNKkUChEb29v0tPgIv1IF/1IF/1IF/1IF/1IF/1IF/1IF/1IF/1IF/1IF/1IF/2YXkV7R1dZBmpqrItyjZVkjUKhkIntyEoN/UhXDf1IVw39SFcN/UhXDf1IVw39SFcN/UhXDf1IVw39SFcN/UhXDf1IVw39mJ7L2wEAAACATBF6AgAAAACZIvQEAAAAADJF6AkAAAAAZIrQEwAAAADIFKEnAAAAAJApQk8AAAAAIFOEngAAAABApgg9AQAAAIBMEXoCAAAAAJki9AQAAAAAMkXoCQAAAABkitATAAAAAMgUoScAAAAAkClCTwAAAAAgU4SeAAAAAECmCD0BAAAAgEwRegIAAAAAmSL0BAAAAAAyRegJAAAAAGSK0BMAAAAAyBShJwAAAACQKUJPAAAAACBTcrt27SolPQkAAAAAgHKpOHb8VFkGamqsi/aOrrKMlWSNDevXRrn2ydVkZV/px+KroR/pqqEf6aqhH+mqoR/pqqEf6aqhH+mqoR/pqqEf6aqhH+mqoR/pqqEf03N5OwAAAACQKUJPAAAAACBThJ4AAAAAQKYIPQEAAACATBF6AgAAAACZIvQEAAAAADJF6AkAAAAAZIrQEwAAAADIFKEnAAAAAJApQk8AAAAAIFOEngAAAABApgg9AQAAAIBMEXoCAAAAAJki9AQAAAAAMkXoCQAAAABkitATAAAAAMgUoScAAAAAkClCTwAAAAAgU4SeAAAAAECmCD0BAAAAgEwRegIAAAAAmSL0BAAAAAAyRegJAAAAAGRKbtu2baWkJ5EmhUIhent7k54GF+lHuuhHuuhHuuhHuuhHuuhHuuhHuuhHuuhHuuhHuuhHuujH9CraO7rKMlBTY12Ua6wkaxQKhUxsR1Zq6Ee6auhHumroR7pq6Ee6auhHumroR7pq6Ee6auhHumroR7pq6Ee6auhHumrox/Rc3g4AAAAAZIrQEwAAAADIFKEnAAAAAJApQk8AAAAAIFOEngAAAABApgg9AQAAAIBMEXoCAAAAAJki9AQAAAAAMkXoCQAAAABkitATAAAAAMgUoScAAAAAkClCTwAAAAAgU4SeAAAAAECmCD0BAAAAgEwRegIAAAAAmSL0BAAAAAAyRegJAAAAAGSK0BMAAAAAyBShJwAAAACQKUJPAAAAACBThJ4AAAAAQKYIPQEAAACATBF6AgAAAACZktu2bVsp6UmkSaFQiN7e3qSnwUX6kS76kS76kS76kS76kS76kS76kS76kS76kS76kS76kS76Mb2K9o6usgzU1FgX5RoryRqFQiET25GVGvqRrhr6ka4a+pGuGvqRrhr6ka4a+pGuGvqRrhr6ka4a+pGuGvqRrhr6ka4a+jE9l7cDAAAAAJki9AQAAAAAMkXoCQAAAABkitATAAAAAMgUoScAAAAAkClCTwAAAAAgU4SeAAAAAECmCD0BAAAAgEwRegIAAAAAmSL0BAAAAAAyRegJAAAAAGSK0BMAAAAAyBShJwAAAACQKUJPAAAAACBThJ4AAAAAQKYIPQEAAACATBF6AgAAAACZIvQEAAAAADJF6AkAAAAAZIrQEwAAAADIFKEnAAAAAJApQk8AAAAAIFOEngAAAABApuS2bdtWSnoSaVIoFKK3tzfpaXCRfqSLfqSLfqSLfqSLfqSLfqSLfqSLfqSLfqSLfqSLfqSLfkyvor2jqywDNTXWRbnGSrJGoVDIxHZkpYZ+pKuGfqSrhn6kq4Z+pKuGfqSrhn6kq4Z+pKuGfqSrhn6kq4Z+pKuGfqSrhn5Mz+XtAAAAAECmCD0BAAAAgEwRegIAAAAAmSL0BAAAAAAyRegJAAAAAGSK0BMAAAAAyBShJwAAAACQKUJPAAAAACBThJ4AAAAAQKYIPQEAAACATBF6AgAAAACZIvQEAAAAADJF6AkAAAAAZIrQEwAAAADIFKEnAAAAAJApQk8AAAAAIFOEngAAAABApgg9AQAAAIBMEXoCAAAAAJki9AQAAAAAMkXoCQAAAABkitATAAAAAMgUoScAAAAAkCm5Xbt2lZKeBAAAAABAuVQcO36qLAM1NdZFe0dXWcZKssaG9WujXPvkarKyr/Rj8dXQj3TV0I901dCPdNXQj3TV0I901dCPdNXQj3TV0I901dCPdNXQj3TV0I/pubwdAAAAAMgUoScAAAAAkClCTwAAAAAgU4SeAAAAAECmCD0BAAAAgEwRegIAAAAAmSL0BAAAAAAyRegJAAAAAGSK0BMAAAAAyBShJwAAAACQKUJPAAAAACBThJ4AAAAAQKYIPQEAAACATBF6AgAAAACZIvQEAAAAADJF6AkAAAAAZIrQEwAAAADIFKEnAAAAAJApQk8AAAAAIFOEngAAAABApgg9AQAAAIBMEXoCAAAAAJki9AQAAAAAMiW3bdu2UtKTSJNCoRC9vb1JT4OL9CNd9CNd9CNd9CNd9CNd9CNd9CNd9CNd9CNd9CNd9CNd9GN6Fe0dXWUZqKmxLso1VpI1CoVCJrYjKzX0I1019CNdNfQjXTX0I1019CNdNfQjXTX0I1019CNdNfQjXTX0I1019CNdNfRjei5vBwAAAAAyRegJAAAAAGSK0BMAAAAAyBShJwAAAACQKUJPAAAAACBThJ4AAAAAQKYIPQEAAACATBF6AgAAAACZIvQEAAAAADJF6AkAAAAAZIrQEwAAAADIFKEnAAAAAJApQk8AAAAAIFOEngAAAABApgg9AQAAAIBMEXoCAAAAAJki9AQAAAAAMkXoCQAAAABkitATAAAAAMgUoScAAAAAkClCTwAAAAAgU4SeAAAAAECmCD0BAAAAgEzJbdu2rZT0JNKkUChEb29v0tPgIv1IF/1IF/1IF/1IF/1IF/1IF/1IF/1IF/1IF/1IF/1IF/2YXkV7R1dZBmpqrItyjZVkjUKhkIntyEoN/UhXDf1IVw39SFcN/UhXDf1IVw39SFcN/UhXDf1IVw39SFcN/UhXDf1IVw39mF7FnIwKAHCFT/zFx5OeAnDRM8++ED09PUlPAwBgzgg9AYB5c+DAgRgcHEx6GrM2ODgYlZWVSU8DrltlZWVs3bo16WkAAMw5oScAMG8GBwejv78/6WnM2sDAYBSLxaSnAdetVHI7fwBgcfD0dgAAAAAgU4SeAAAAAECmCD0BAAAAgEwRegIAAAAAmSL0BAAAAAAyxdPbAYDUyS3NR/W6mqhaUx356iUREVHsH46B0/3Rf6IvShc8SR0AALg6oScAkB65iNrb6qP29vooliK6T3bGQGdPRERULa+K+h0rojEX0f16Z3S/2RlRSni+AABAKgk9AYBUyC3Nx4oPro4l9RXx7qvvRNuhs1Eqjk81c/lcrNiyMtb93oaouqEm2n7eatUnAAAwgdATAEheLmLFB1dHsaoUB59/PQbPD076slKxFGd/eya6TnTG5g/fEis+uDrO/uupRFd8Fu/6VHztvi1x5Eefj6f2LazbpReLzfGRzz4S2xtzY18rHXkuvvrkngRnNbcW4zYDACxGQk8AIHG1t9XHkvolcfD5N8YCz5qmQtQ01Yx7XV97X/S198bg+cE4/L9+G7fe/96ova0+ut/onHTcfHXE8pvzsbQ+F/0nStHbUozSIrskfudD34x7mw/HT770eLycvxTKFjc+GJ95+M5oaHk+Hv32pcBv4wOfj7994ER857mWacdYaGazzQAALGxCTwAgUfml+ai9vT7e3f/OuBWetWtqY/Xta6KiemlERAz1X4jW109HX3tvREQMnh+ME/9+PG7cflP0HOyO4hWXuVc25mLVhyvi3C+Ho+u14Vj94YqovS0fp14Ymr+NS1ix2ByrGif/+kc+emc0nHslnnzixYjLgsyjzz0W35nBGAvNbLYZAICFT+gJACSqel1NlEqlaDt4dtzXW988Ha1vno6N/6k5IiKO/tvEVXhtB8/GhjtujOp1NdF7tGfc9/LVI5cvD3WPLO280FmK6nW5CWMsTuuiqSEiziU9j/m0GLcZAGDxEnoCAImqXF0VXSe7Jjy0aCZKxVJ0neyKytVVE0LP0Rt9lkoRFctykavIReRGfn2loZ7yXvO+8YHPxyd3NMWRH30+fnPrf43dmy7VvPLen6P3BO149bvx7TN/GF+7b8ulLSgdmnBJ+cil5h3xiyf+Lp4/OvFy9dj/eHznuZaxOYzYEru/8Vjsjhip88yJaD8X0dxwc7yvOeLo0am3Y7IxvvNcy2X3M/1utN89cp/MUsfL8eS3fhhHL85550PfHLf9o++93Og4l7tyP81kn15Za/wYM9vmy1053vX04/LtnGp/jd/nk99vdCb7FABgsRN6AgCJWlKoiJ6Ovmt+/2D3YFQ31k78xmXZ5pr7Kib99ajjP7hwzfWnsum+xyJ+9Pl49Mn82AN07tj9hbj/5PiALCKiccen46sdL8f3v/h4HM3no1i8Jx76+v1x79e/EKuemPj66Rx97rH48jMXazaMvx9nPh/x2qGO2L6jKe54+AsRVxl/qjHGzf3uP4/GQ4/Ho6PB22Xzbz73Snz/iyOh3kjo9+n4yopLQV5x44PxmVvfjEe//L2x8XY+9M249yr7afw+Hamx6b7H4tH7RsK/R59smXRf5/MtM9rmiLg09zgcP/7iyDaPjnmt/Zh+f43u547Y//efHxu/eNen4qG7Xoyn9s18nwIAELFw70QPADCF/hOlOP6DCzF4JrknF5WOPDe20jCfb4ln/59X4lw0xh1/8IGJr71ixV8+vyeefOLqr79eR597LL7/anvkck2x/W8ei6985sHYWCxO/8ZJNMTB+OdnDo/72t0Pj4SGP7l8m/Z9L358pBTRfE/cv3GkVv7o0/GdK8K6l346xX4at0/3xM/2d4x8vePlsTlcvq83b908620emXtH/OKJy4Pilnj2W89HSzTGHR/92DXvq4jJ91fzn/55bG/MRcuPxweq+X3fG9veme5TAACEngBAwoZ7h6KytvKa319ZWxnDvel8OFHLWy9e8YXW6LjKa88d+tVYkHXp9b+Kw+cionH1dYVsV3P0ucfiy198Lo6USpFr3Bmf/MZj8bcPNM96nCvnXizeE+9pjoiWNyesDD3V1hG5XFM03TD5WKOXhTfmJr//6pX7tOVM+6RzGNWwYt2430+3zZfmvmfCas58fk/8piUiLl4if60m7q/meN+Wxih1vBw/2zv5e65nnwIALEYubwcAEjXYOhD1O5oil8/N+r6euXwu6m6oi85X2+dodnPkYoh5efDVceZwXPnv0fl8S5zpiIjmFbE2ImZwG8pZy+f3xFNf2TN2v8nGHZ+Ov43Z3SNywtybV0djROQ2PRCPfu2BKd87don6VULOa3YxYG6Y5FtTbvPFuZ9rOzHpsKfaOiKuI/CMmGx/bYvNDSNzniy4HXnNzPcpAABCTwAgYf0n+qIhl4sVN6+Ms785M/b11betidW3r4mK6qUREVG7tjZaXx95ovuoFTevjFwuF/0nrv2eoGlWLDbHqsb5qZXf97348smRVZYN2/8wdj4z+f07Z2Oyh/BcVvHifSxHAs9SqX3sYUCX7qk5tybb5pfmuOb1mm6fAgAwQugJACSqeKEY3a93xrrfXR9dxztj8PxgRER0n+6OoQvjL1vva78UblYur4x1v7s+ul/vjOKFqS/9HmhN/70OG1dtjogrV1eui6aGiDjXFqfmYQ75o0/HvpY7497rTRtHV1lOsqJ1nIsrHC8FefMf2k3Y5otzb16xLib2I2LtisaIOBxnWqJ8053J/prpPgUAICL8czAAkALdb3bGcOdwbP7wLVG5fOT+nn3tvdF+qG3cf33tvRExEnhu/vAtMdw5HN1vdk47/tmfDU/5Xxo0bNk28b6du26LTbncuHtAXu3+jc1bb77qfTBnqlwrS6/73pcXt3s+XLnNY3Of5MFAk91Xsxz9mMn+Ktf9RAEAFouKpsa6sg1WzrHUUEMNNdRQQ43s1pigFNH289ZY8cHVcev9t8eJXx6LtkNnJ9zjM5fPxYotK2Pd722I4c6haPt5a0RyD2cvq1zjznjo4daxS5eLGx+Mz+zefOmp5BdDtpYDB6Nj+53RfPfHYuPekad4Fzc+GH+2fWJamc+3xGuHOmL7ji3xnl0RL+8b+fro5ePx4/9r7MngEZeeIH7kR+OfWj7ZGNN56aevxF3Nd8YdDz8SZ750abziXZ+Kr9765sh2tvwqDp+7M+5ovi12Fl+Mly9uy2d2b55m9NmbzTa/9MTz8Z6v3z9u7qOX4jfH4fjJEy9eUz+mcqnmFyKeuPQE9+Jdn4qH4vF4al9+Zvt0lubyfM/Kn1dqqKGGGmqoocbCrFHR3tFVloGaGuuiXGMlWaNQKGRiO7JSQz/SVUM/0lVDP9JVQz+uX+lCMc7+66mova0+btxxU6zfflN0n+yMgfMDERFRtbwqam+oj3wuovv1zpEVnhkJPCMiOl79buxb8ci4h9SMXfZ92aXM+aNPx7efiPjMw3fGJ7+xc+R1HS/Hk0+8En/28J0Txm155gexf8sjsf2+x+LR+0bqfOe5PfHkl07ERz77X+PR+y6tRiyV2mP/339+wlPLJx9j6gcd5Y8+Hd/+Ums89PX7Y/c3HovdV25TjASqz37r+Wi67DWl0qH4yZdGAsByLmjM52e+zZde+8j4uXe8HE9+6YfjLi2fbT+mmt9TX9kTOx/6Zuz+m8di+2jNI8/FV5/MX6o1zT6drbk637Py55XPj8VXQz/SVUM/0lVDP9JVQz+ml7tp46ay/HVhoe+IURvWr41jx+f2rllZ2Vf6sfhq6Ee6auhHumrox/Q+8Rcfj/3790d/f/+0r80tzUf1upqoWlMd+eolERFR7B+OgdP90X+iL0rT3MOz3AYGBqOqqnJOxh59gvhMgkS4XlVVVbFjx4545tkXoqenZ87qLPQ/r+azhs+PdNXQj3TV0I901dCPdNXQj+l5kBEAkDqlC8XoO9oTfUfnLpQBAACyy4OMAAAAAIBMEXoCAAAAAJni8nYAgATl930vHp3hE9EBAICZsdITAAAAAMgUoScAAAAAkClCTwAAAAAgU4SeAAAAAECmeJARADBvKisro1QqJT2NWcvl8lFZuTTpaSSuojofQ/3FpKfBdaiqqkp6CgAA80LoCQDMm61btyY9Ba7RcP5CtK19O1afujlC7gkAQMoJPQGAefHMsy8kPQWuw3s/sj5qc9Xxy1P74t19bUlPh+vU29ub9BQAAOaU0BMAmBc9PT0REdHUWBftHV1zWmvD+rVx7PipOa0xH9uRlhrVdZVRu746IiLWvq8+3vrpO7Na7akf6aqxYf3asfMRACCrPMgIAIApvXf3jWO/zlfkYvM9axOcDQAATE/oCQDAVVXXVUbDjcvGfe3GO1b5KRIAgFTz4yoAAFd1+SrPUVZ7AgCQdkJPAAAmNdkqz1FWewIAkGZ+VAUAYFKTrfIcZbUnAABpJvQEAGCCqVZ5jrLaEwCAtPJjKgAAE0y1ynOU1Z4AAKSV0BMAgHFmsspzlNWeAACkkR9RAQAYZyarPEdZ7QkAQBoJPQEAGDObVZ6jrPYEACBtcrt27SolPQkAANLhxg81Rs2apbN+X/sbvXH2P87PwYwAAGD2Ko4dP1WWgZoa66K9o6ssYyVZY8P6tVGufXI1WdlX+rH4auhHumroR7pq6Ee6aujHNdbIR9wQtdF3buK/iecrclG1fGkMnL8QxaGJ3y9WDV11n+tHumroR7pq6Ee6auhHumroR7pq6Ee6aujH9CrmZFQAABaeYsSr/3Bw0m/Vr1sWd3xic/z62Xei80TPPE8MAABmx92XAAAAAIBMEXoCAAAAAJki9AQAAAAAMkXoCQAAAABkitATAAAAAMgUoScAAAAAkClCTwAAppWvyI/7PwAApJmfWgEAmFb9+pooDpWifn1N0lMBAIBpCT0BAJjW6lsaovNET6y+pSHpqQAAwLSEngAATKnxpuWxfGV1vPPKmVi+sjoab1qe9JQAAGBKQk8AAK6qojIft/3xhjj2H23R9nZ3HPuPtrjtjzdERaUfIwEASC8/rQIAcFWbPnhDREQc+fnJcf8f/ToAAKSR0BMAgAlq19TE1gd/J9ZvbYo3fvJuDA0WIyJiaLAYb/zk3Vi/tSm2Pvg7UbvGg40AAEifiqQnAAAwn6prl0bkctc9TuXyiqgerizDjNJVo2p5RWzcuTpWbq6Ls4e7Yv8/Horu033j3nPu3Z7Y/4+HonnXmtjxVzfH2cNdcfTl1hg4PzRpjaXLlkR1Xfb21ayUStHffaG8EwIA4KqEngBAJlXXLo3lq2ui0FQVy1dWx7KV1VFoqoolS13oMp2zh7vi1X84OCHsvFz36b448PTbUbumJpp3rYk7PrFlyjGbY0W5p7ngDA0MR9epvjjf2hedJ3uj+1Rf9HcNJj0tAIBMEnoCAJmSz0esfP+yuPm2VVEcKkVv+0D0nO2P02+di972gehtH4jicOm66zTUL49znefLMON01SgOl2KwZ+YrEkfDz8plSyO/ZPIVtDesXRUnT5257rlOJe39yFfkY9nKqqi/oRDLV9fEuq1NsaQyH++8eiZa/u1UFItlniwAwCIn9AQAMqO6dmm8909uitpVhXjtn4/G2cNdc1ZrcMnQnK/SW0g1pgpKL9QOL5jtmMsave39cea3nWO/X7GpLm6798aoX7cs3njhHZe/AwCUkeu7AIBMaGquje1/dUtERLzzk/Y5DTyhHNqOdMX+f/htRERs/6tboqm5NuEZAQBkh9ATAFjwGm5cFlsfbI6Tv26LX/2Pw3GhdzjpKcGM9HdfiF/9j8Nx8tdt8f4Hfyeablme9JQAADLB5e0AwIJWUZmP9957Y5w40BaHf34q6enArBWLEYd/fip6Owbj1j/aED29/XHytfakpwUAsKAJPQGABW3TB2+IiIgjPz+Z8Ezg+px8rT2WFarjPf95w9jvAQC4NkJPAGDBqqpdGhvevyJ+9U9HYmjQ469Z+Np/ez76Bwbi1j9aH22HO2PQrRoAAK5Jbtu2baWkJ5EmhUIhent7k54GF+lHuuhHuuhHuuhHMupvKsTGP1gVrz31TpRKl36k0Y900Y/ZqVxeEe/9Lxvijf9+LAbPD5V9fP1IF/1IF/1IF/1IF/1IF/2YXkV7R3mebNrUWBflGivJGoVCIRPbkZUa+pGuGvqRrhr6ka4a+pFMjdpbqqKnrT/a2jvHfV0/0lVDP2ZX41zn+YiIONd5Pvq7BsteQz/SVUM/0lVDP9JVQz/SVUM/0lVDP6bn6e0AwIK1rKkmes4OJD0NAAAgZYSeAMCCtWxlVfS09yU9DQAAIGWEngDAgpTL5aLQVGWlJwAAMIHQEwBYkCqXL4klS/PR2y70BAAAxhN6AgALUi438mNMcbg0zSsBAIDFRugJAAAAAGSK0BMAAAAAyBShJwAAAACQKUJPAAAAACBThJ4AAAAAQKYIPQEAAACATBF6AgAAAACZIvQEAAAAADJF6AkAAAAAZIrQEwAAAADIFKEnAAAAAJApQk8AAAAAIFOEngAAAABApgg9AQAAAIBMEXoCAAAAAJki9AQAAAAAMkXoCQAAAABkSkXSEwAApveJv/h40lNInWJuOHq7OuLP7n8g8qUlSU8nlZ559oXo6emZs/Edl3PDsT0/5vr8AACSldu2bVsp6UmkSaFQiN7e3qSnwUX6kS76kS76kS5z3Y977703Dhw4EIODg3NWY64MDg5GZWVl0tNYVCorK2Pr1q3xzLMvRFXl3IVmjksWovk6P2bK53m66Ee66Ee66Ee66Mf0Kto7usoyUFNjXZRrrCRrFAqFTGxHVmroR7pq6Ee6auhHumrMRz8GBwejv79/TmvMhYGBwSgWi0lPY1EplS79m/Z0x+X1nh+OSxaa+Tw/ZsLnebpq6Ee6auhHumroR7pq6Mf03NMTAAAAAMgUoScAAAAAkClCTwAAAAAgU4SeAAAAAECmCD0BAAAAgEypSHoCAEB55Zbmo3pdTVStqY589ZKIiCj2D8fA6f7oP9EXpQueWM38c1wCADCfhJ4AkBW5iNrb6qP29vooliK6T3bGQGdPRERULa+K+h0rojEX0f16Z3S/2RlRSni+LA6OSwAAEiD0BIB5suX3b4jW33ZF18meso+dW5qPFR9cHUvqK+LdV9+JtkNno1Qcnx7l8rlYsWVlrPu9DVF1Q020/bzV6jrmlOMSAICkCD0BYJ40bVweN+1YFW0t3dGyt7V84WcuYsUHV0exqhQHn389Bs8PTvqyUrEUZ397JrpOdMbmD98SKz64Os7+66lEV9YVNz4Yn3n4zmjM5SZ878iPPh9P7XP78QUrI8dlx6vfje881zL16+/6VHztvi1RKrXHL574u3j+6OyP29ExZnrcb3zg8/HJHU0zml9Spjq/Sx0vx5Pf+mEczecn3ZbZ7g8AgCsJPQFgnq1oro0VzbVlCz9rb6uPJfVL4uDzb4wFSzVNhahpqhn3ur72vuhr743B84Nx+Bw8KOYAACAASURBVH/9Nm69/71Re1t9dL/ROem4+eqI5TfnY2l9LvpPlKK3pRilOQqirgxuNj7w+fjkfY/F365Kb6DD1DJxXHa0R8OWbbGxeDiO5q8evN196+a5mUBE7Hzom3Fv8+H4yZcej5enmEOSppvjVYPZlG4PAJANQk8ASEg5ws/80nzU3l4f7+5/Z9xKuto1tbH69jVRUb00IiKG+i9E6+uno6+9NyIiBs8Pxol/Px43br8peg52R/GKy4krG3Ox6sMVce6Xw9H12nCs/nBF1N6Wj1MvDF3HFs/c0eceix+v+Gbcu/0PY+cz6Q17mFxmjsuO9jjXfGf8/q4fxlP7Jn9JceODcVdzRxw5EtHcXN7yxWJzrGqc/HtHn3ssHn2uvPWuxVRznKm0bAsAkC3+BgEACVvRXBvb/3JzvP9jzVF3w7JZvbd6XU2USqVoO3h23Ndb3zwdv/6nA9Hxdnt0vN0ev/6nA9H65ulxr2k7eDZKpVJUrxu/8i4iIl89cjnqUPfIEroLnaXIzfM/lZ5q64iIplhV5iCJuZeZ47LtX2JfS0Tz3R+LjcXJ7zN69x/cGQ0te+JnbXM4DwAAZs1KTwBIiWtZ+Vm5uiq6TnZNeDjMTJSKpeg62RWVq6ui9+iVtUbGK5UiKpblIleRi8iN/PpKQz3zf/PFnQ99M3ZvujSXyS6fHb1P4KjJ7g145Til0qEJl+iOXLrbMeFejaP3K4z9j09yH8LvRvvdj8T2xty4exdONq/Skefiq0/umfX2pVmWjsuX3joc9+6+Od7XHHH06PjvjazyjGj58YsRq+6Z8N7ZHDtXGn+cbInd33gsdselY2Gye16Ofq3j1e/Gt8/8YXztvi1j4012bF/+nstdea5c7bh+7uDN8ZE7rz7HmZrt/TsX+vkBAMwPoScsQLl8LkrFUuRyuaiqHblEsHJ5RVQPV4573YW+oRi+UBz3usnM9HX5ipG/YJRrvMleNx/bsWRpPhPboR/p2o6Z9CM3w0u0ZxN+LilURE9H34zGncxg92BUN9ZO/MZlGdKa+yom/fWo4z+4cM31r6ZYbI73bWmMOPdKvNYSY9emFIv3xENfvz+az70S3//iSJA4Eph8Or6y4lJ4OBo27f/7z8fzR/NRLDbHRx7+WGzce/E9o+PE4fjxF0eCoGKxOT7y2Ufi3q9/IVZd48NoRjXe/efReOjxeHQ0iLls/DsaLs0rYiTweeiuF+OpffkZb1/aZeq43Psv8Yu7H4k7/uAD8fwV+795683REIdj396I+NPylBt19LnH4svPjB4zs7unZ+OOT8dXO16O73/x8XHH+5XHdnHjg/GZW9+MR7/8vbH37nzom3Hv7i/E/ScnngMTjuuI2P/stc3xWmTl/AAA5ofQE1Kuuq4yatfWRP0NhVi+uibq1tbEkT2n4tgv26KiaknseuTWq773t/96vKyva/1Fd8TRmPe65X7dsZfa4kzrudTOTz/SNb9y92M2RsPPU290xHw/yrr/RGlOwsyZuvvhkXDwF0/8cNwDZO5+eCSo/MllKyfz+74XP771m3Fv8z1x/8YX49mWD8R7miOiZc9YaJPPt8TzT7aMPThlZJyO+MUTl0KafL4lnv3W89H09fvjjo9+LF771g+nfHjNVBriYDz5zOFxD2pp/tM/j+2NuTjyo/FhUn7f9+KpuHxeU2/f9YSxC10Sx2U+3xKvHeqIO7aP3//F4j3x+9sb49z+H8TL+XxsnNdZTe3K1cX5/J548onV8ZmH7xwX3uaPPh3feXL8e1/66StxV/Odk4a8kx3XM9G449Px6I7xX7uW1ZnODwBgNoSekFK1a2qiedeaWLm5LoYGhqPrVF+cb+2L4//RFp3HRx74MDQwHHsffysiIhrql8e5zvPjxrjQNzThdZOZ6etWN64o63iTvW4+tqO2upCJ7dCPdG3HTPrx/o82x7KVVVcd40qDvcPx7i9a4/i/t8W2j028fDciYrh3KCprKyf93kxU1lbGcO/8PJxoKleGIqUjz8VXv7InLr/9eLF4z8Uw880Jq8lOtXVEblNTNN0QEaM5SvNtsbP44sTLecfG2TMhIMnn98RvWu6P5ubJL2eeqXOHfjUuMB1duVrqeDl+tjcmvav6jLfvGuc0n7JyXI5qOXAwzm2/MzZv3RxxdOQAa/7Te0aC8wOHI223yb/y+IuIiJZfxeFzd8YdjatjY7E4aaA/etl9Yy436T+zTDruDJTj8vMsnR8AwPwQekJK3fwH62JoYDj2/7dD0XWqd9LXlEql6O8aeSru4JKhsV9P9bqpTPe6Ym1pRq+7nrrzsR2FJdVlHW+y1+nHzF+3mPpRusqDUK50edg5NDj1ewZbB6J+R9PYbS9mI5fPRd0NddH5avus3jcXLg9FRu7X90D89cVLvsc0r47GiMhteiAe/doDU4x2ItrPRWxqHLnH4F1XBi4XxznXdmLSd59q64i4zocndZy5Ighr3habGyKipfXqodGMty/9snJcjsoffTr2tdwZ927/w9j5zOPxUnwgfn97Y0TL86lcWTjh+IuRFatnOiKieUWsjZFscPRy8U25yf9RZSbjzpsMnR8AwPwQekKKLF9dHX0dgzF8oRi/+qeWKA7NLCABsmE2Yeeo/hN90ZDLxYqbV8bZ35wZ+/rq29bE6tvXREX1yP1Fa9fWRuvrp8c9KXvFzSsjl8tF/4lrv/fiXHjpicdj1WcfiTt2PxI79068R+BkD/65JD/uMvVNudzYKtKF8rCT6bZvIcjkcfnW4di9aUvc9aeb46Uzt8WmXC6OvPViLJSeFIvNsapx/O8/8tmRc6RUah972NKl+92mUxbODwBgfgg9ISWqa5fGtv99cxx9pTXe3X9G4AmLyLWEnaOKF4rR/XpnrPvd9dF1vDMGz4+sMu0+3R1DF8ZfHtzXfilEqlxeGet+d310v94ZxQtT1xxond8/j/L5lnj2pcOx/b4tce/DH4iXRwOOltboiIiGKS7PvTTGnnjqK3vGrWRr2P7ncf+Bv4tnL47TvGJdXLoW/pK1Kxoj4nCcuewBStdtJnOfxfalXRaPy9j7L7H/7s1xx5Zt8ZEVm6NUOhS/ucqtCpLWuGpzTDy210VTQ0Sca4tTEWOrjy+FiCnckMtl6PwAAOaHnxYgBfL5iPf+yU3R294fx395Zvo3AJkw2Dsch188Gfu+92YcffnMrAPPUd1vdsZw53Bs/vAtUbl85D6Kfe290X6obdx/fe0jt8qoXF4Zmz98Swx3Dkf3m53Tjn/2Z8NT/jcX8vu+Fz8+Uorcpgfir+8a2S8j99uMiIaR+23OaJz8nnjqK/93fP/V9sjlRu75NzZO8z1x/8bx+3yy+waeausYe+/lmrfeHI0zvCx4JnO/lu1Ls6wdl6MPNMo17oztm3Jxbv+/TPuk8nIcO9eiYcu22Hjl7TR2jaxOnfa+nBdflzZZOz8AgLkn9IQUaP5Pa6PQVB1vvPBOzPCWf8ACVq6wc0wpou3nrZEfyMWt998eK29ZFbn8xNAil8/FyltWxa333x75gVy0/bx1vh8KPysv/fSV6CiVovnuj40FOC/99JU4F41xx8OPxM7L/sAs3vWp+MpD94z8unhP/PXFX49au6Lx0sq8iHjpieej5YpxRi/3bY7D8ZMnXhx7b8uBgxPmUdz4YPzZ9saYjUs1vzAubC3e9amxYHcm27dgZPC4HD0WSqX2OHzg8Ixff63HzljQmtsS79k183nmGnfGQw9/YOz3xY0Pxmd2b45Sx8vxz89cnHfLr+Lwubj4wK/iuNfNxrXO8Vpk6vwAAOacy9shYUsLFXHTjlXx62eORn/3haSnA8yhwb6RsPNaLmOfTulCMc7+66mova0+btxxU6zfflN0n+yMgfMDERFRtbwqam+oj3wuovv1zpGVdCkNlkbljz4d/7z/5vjkjp3x0MOt8dUn90T+6NPx7S+1xkNfvz92f+Ox2H3xtZff5y+f3xNPvvWp+NplDzspdbwcT37ph2Mr3PL5PfHkl07ERz77yPhxrnjd6Dy+/UTEZx6+Mz75jZ2XXvfEK/FnD9858+25eMn9zoe+Gbv/5rHYPm7u+Uu1ptm+hSRrx+XYA41iz4weYFSOY6flmR/E/i2PxPb7HotH75vZvWk7Xv1u7FvxyLgH/owdQ2PnwKV7344ea6XSofjJl56P98zynp7XMsdrkbXzAwCYW7mbNm4qy4+WTY110d7RVY6hEq2xYf3aOHb81JzWyMq+0o/y1Kiuq4xdj9waex9/a0ZPkL6WGuWyGPqxkGroR7pqzKQf+Xxc82ruT/zFx2P//v3R398/7WtzS/NRva4mqtZUR756SUREFPuHY+B0f/Sf6IvSNPdKLLeBgcGoqqqc15qLXVVVVezYsSOeefaF6OnpmfK113N+OC7TpXjXp+Jr921ZMA/tSsp8nR8z5fM8XTX0I1019CNdNfQjXTX0Y3oVTY11ZRusnGOpocZiqVG5fGTBdUP98hhcMjTpa663RjmpoYYaydaYidKFYvQd7Ym+o1P/ZZ7FYSbH5Xwcu45L0igt54caaqihhhpqqFF+FeVKUxd6+juqUChkYjuyUmMx9KOid0m07F0aZ1s7Y2jg2h+8oB+Lr4Z+pKvGfPQDrsV0x+V8nB+QVmk4P3yep6uGfqSrhn6kq4Z+pKuGfkzPPT0hYUMDw9Gy93TS0wAAAADIDKEnAABkQH7f9+LRfUnPAgAgHaZ/7CQwp6rrKuNDn9sa1XXZepgCAAAAQFKEngAAAABApgg9AQAAAIBMEXoCAAAAAJniQUYAsEBUVlZGqVRKehqzlsvlo7JyadLTWFSqqqrmrZbjkoVmPs8PACA5Qk8AWCC2bt2a9BRSp33lu1F7bmUsHapJeiqLluMSAIA0EnoCwALwzLMvJD2F9KmI2Pl/bo7Whu7Y/0RL0rNJpd7e3jkd33HJQjbX5wcAkCyhJyRsaGA4WvaejqGB4aSnAqRYT09PNDXWRXtH15zWWUg1tn9iS0RELKnKR0V9KTpPXAowNqxfG8eOn7ruGlNZSPtqrvT09MzodfqRrhr6AQAsBh5kBAkTegJcg4qIunWFsd++/6ObEpwMAACQNkJPAGDB2f7xLeN+X1Gdj/rLQlAAAGBxE3pCwqrrKuNDn9sa1XWVSU8FYGG4YpXnKKs9AQCAUUJPAGBBuXKV5yirPQEAgFFCTwBg4bjKKs9RVnsCAAARQk8AYAG52irPUVZ7AgAAEUJPAGChmGaV5yirPQEAAKEnALAgTLfKc1RFdT6qV1TM8WwAAIA0E3oCAOk3w1Weozb8b41zOBkAACDthJ6QsKGB4WjZezqGBoaTngpAas10leeofGXOvT0BAGARE3pCwoSeANOY5SrPUe7tCQAAi5fQEwBItdmu8hzlSe4AALB4ucs/JKy6rjJ2PXJr7H38rejvGkx6OgCpc3jPqSjUV034esP6ZbHm9oY4/fq5OHe8Z9z3GhvqouNcVwz0FOdrmgAAQIrkdu3aVUp6ErCYLV22JJo/siJanm2LCz0ucQeYqYbNNbH6ztpofaU7zh3uS3o6AABAilQcO36qLAM1NdZFe0dXWcZKssaG9WujXPvkarKyr/SjPDWq6yqjOVbEyVNnrmulp34svhr6ka4a+jH/NUorVsTqqI2Oc11x/HjbuO/pR7pq6Ee6auhHumroR7pq6Ee6auhHumroR7pq6Mf03NMTAAAAAMgUoScAAAAAkClCTwAAAAAgU4SeAAAAAECmCD0hYUMDw9Gy93QMDXhyO8BsFIeKERFRWfDjDAAAMJ6/JUDChJ4A16bjWE9ERKy6pT7hmQAAAGkj9AQAFrSaxqqkpwAAAKSM0BMSVl1XGR/63NaorqtMeioAC9KSiiVJTwEAAEgZoScAsCCt3FQbpShF5CLe88cbkp4OAACQIkJPAGDBueF9TbHlQ+vjrf/3eFzoH47172uKQoMV8wAAwAihJwCwoNzwvqZ4z3/eEL/5/47Fydfa4xf/7WBERNzxf9yc8MwAAIC0qEh6AgAAUyk0VkXDjcui8cZl0bChNiqXL4m3/udI4BkR0XtuMN7997Ox4XdXxoc+uzWGh4bjQtdwFH9xIU4caEt49gAAQBKEngAwQ9W1SyNyuUm/t3TZkjl/IFnl8oqoHs52jXxFPpatrIr6GwqxfHVN1K2tiYqqJTHQPRTnjnVHy0unov3o+ejvHBz3voP/ciLOHeuJjdtXxrKV1VHdVBm3/tH6uPWP1kepVIrihVL0d1+InjN90dZyPoYGh697O2qX1cSSlZMfD+WSyhqliMHeoVnVqFm5NOpLy2Y5s9lZVlsVwzVqzIR+pKvG1ftRioHzszvXribpP9sXUg2f5+mqkUg/SiM/MwALn9ATAK5QVbs0alfXRKGpKpavrI5lK6uj0FQVS5ZOfVeY5lgxTzPMtqGB4eg61RfnW/vi+H+0xfnWvug7Nzjt+878pjPO/KYzIiI2rF8bA4W+WPOe+li2qiaqa5dGoakylq2oitW3Nsz1JjCJG6Mx6SlwGf1IF/1IF5/n6ZJEP4YvFKO3fSB6zvbH+bP90ds+EN2tfTEgDIUFRegJCRsaGI6WvadjaOD6Vx0B16d2TU0071oTKzfXjfth9/Rb56K3fSB62weiOFya9L03rF0VJ0+dmdP5NdQvj3Od57Ndo4yrK84c7IwzBzsnfH3VlrqrrtidjdplNdHd03fd4yy0Gvkl+aiuXzryjwGNVbFsxcg/CHQe740Tr7VHb/vAhPesXtUUrWfayzntCepqC9HV3avGDOhHumpcrR+5fC4KDZVR01AVhaaqqGmqjEJDVeQrctH+zvl4d//Z6DnbP6Maif/ZvoBq+DxPV40k+pFfkotCU9XYP36vubVh7B+/zx7uipa9p6P79Nx+NgPlIfSEhI2GnkByLg87zx7uil/846HoPDm7v+ReqB2O/q7pVyNej8ElQ2qUwZlDXWUZZ7ixFO0d5RlrodeoW1uI37l7ddx274ZJ/0JYm6uNzhM91zvVKS1pXBKdHWrMhH6kq8ZU/Th3bOLX6m8oxMa7Vsf7P/o7Mw5gsvJn+3zU8HmerhpJ9aO3YyDi8PjXjZ57O/7qZuEnLBCe3g7Aola7pia2/+WWiIh49R8OxoGn35514AmLXdep3jjw9Nvx6j8cjIiI7X+5JZqaaxOeFWRT58mJ51vtmpqEZwXZ59yDhUfoCQmrrquMD31u65zfoBuYXPOuNdHW0h0Hnn7bv9bDdeo+3RcHnn473tl/Jt67+6aRh38Bc2L0fGtr6Y7mXWuSng4sGs49WDiEngAsWrVramLlpjq3mIAya/m3U9Hb3h/v/ZObIu+nTZhTLXtPx8pNdVacwTxz7kH6+TEUgEWredeaOHukywpPKLNiMeKNF96JQlN1NP+ntUlPBzKt+3RfnD3SZcUZzDPnHqSf0BOARam6rjJWbqqLt19qTXoqkEn93RfiN//z3bhpx6pYUu1HTphLb7/UGis31bldEswz5x6km59AAViU6tYVYmhgOLpOeWgRzJXu1v7I5XKRX5JLeiqQaV2nemNoYDjq1hWSngosKs49SDehJwCLUt3qGpe1A5AZ3af7om61ewvCfHPuQXrltm3bVkp6EmlSKBSit9eqn7RYDP2oXF4R7/0vG+KN/34sBs8PJT2dKS2Gfiwk+nF9tuxeG71nB+LEqx1lGU8/0kU/0mH0M67l2bboPNOd9HS4yPmRLuXqx7odjVFYWRWHfnyqDLNavJwf6bIQ+rGYzr2F0I/FRD+mV9He0VWWgZoa66JcYyVZo1AoZGI7slJjMfSjondJtOxdGmdbO2NoYHhOapTLYujHQqqhH9dXo7rpxnj7l61lq60f6aqhH+moUT186R5nC3k7slbD+ZGuGuXqR8U7+bj1lvWTjpWVfbWQ+jGVrOwr/Rgx1blXrhozoR+Lr4Z+TM/l7ZCwoYHhaNl7+roCT2B2qmoroqJ6SZxv7U96KgBQFudb+6OieklU1VYkPRVYVJx7kF5CTwAWnVxu5OOvOFRMeCYAUB6jn2mjn3HA/HDuQXo5KyFh1XWV8aHPbY3qusrpXwwAAADAtISeAAAAAECmCD0BAAAAgEwRegIAAAAAmSL0BAAAAAAyRegJAAAAAGSK0BMAAAAAyBShJyRsaGA4WvaejqGB4aSnAgAAAJAJFUlPABa70dATAAAAgPKw0hMAAAAAyBShJySsuq4yPvS5rVFdV5n0VAAAAAAyQegJAAAAAGSK0BMAAAAAyBShJwAAAACQKUJPAAAAACBThJ4AAAAAQKYIPQEAAACATBF6QsKGBoajZe/pGBoYTnoqsGg472B+jJ5rw4PFpKcCmeezDZLh3IP0qkh6AsydT/zFx5OeArNw98akZ8BMPPPsC9HT0zOnNZy788d5N3/m+txx3qTcxoi4O+lJcDU+27LFZ9v88dnG5Zx7C8t8fPaRPKFnxh04cCAGBweTnsasDQ4ORmVlZdLTgDGVlZWxdevWeavn3CUr5vPccd7A7PhsmxnnKFfy2TY95w1pNd+ffSRL6Jlxg4OD0d/fn/Q0Zm1gYDCKRZfCkR6lUmle6zl3yYr5PHecNzA7PttmxjnKlXy2Tc95Q1rN92cfyapoaqwr22DlHEsNIM1mcg47z2G8y88J5wekT7nPS+c5i8G1HufOD0jeXJ+HWcmWFnKNivaOrrIM1NRYF+UaK8kahUIhE9vhQxTm1nTn8Hyc57DQjJ4Tzg9Ip3Kel85zFotrOc6dH5AOc3keyq/SUcPT2wEAAACATBF6AgAAAACZIvQEAAAAADLF09u5JF8ZUbMh+juPRUREdf2GiL5jEcXBhCcGXE1uaT6q19VE1Zrq+P/bu/cYua46T+C/Kjttu+N2P5ynk9i0HyEhQ/BM7MSdKKARSBtHMZAZZUczWqEQUFgtjCYjJIsZMRBgNLCW0DK77GqJIGTRSKsVAyEPCCuNFhFvYic2C5MHTojtTudhJ3bc1e1H2+7gqv2jurqrqqu7q/pRffv685ESJV3V99y653z71P1V3XOzSxdFRET+zLk4+/aZOHPodBTedddMqCY3kGwyCo2TG4DxFD3Pd4taY9n7Phdtqz8Ug6/tipNvPx+D7wwUH7rw/bF87V9E++qeOPHaL+P0b78dcW5onncYiIiITETbte3Rdl175AsRJw4PxtnBUxERsWT5kmjfvDI6MxEnXhyME/sGIwrzvL+QBHIDySaj0Di5AZiQoud5LLP0omjf/PVY2rEmXnj4U3Fu+GTF4/2vPhn9rz4Zi379P+IP7vxeLOnYEIN7/iYKZ96Zpz0GIoqf5K/84CWxqH1xvL7ntTi2/50o5CvfwWaymVi5/qJY9UdXxpLLl8WxJ4/4hJ/zmtxAsskoNE5uACan6Hm+WtQaKzb/Q7S0r4q+Xd8aV/Asd274ZPTt+lZcteWzsWLzP8Tg0/cl6hufN9399di6NhOFg4/FVx56quZz8ls+HV+9fX3k9nwn/vGx3ibvYfPl19wZf33PjdGZyYx77ODPtscPdlvOd8HKRKz84CWRX1KIVx5/MYZP1l5+opAvxDu/OxrHDw3Guo9cHSs/eEm883/emtdP90vjMvY+MGEO12zbHndvivjVg9+Ix/uaO07lJsUWcG7K5fPd8dHP3xubOsfGaKGwP37+dw/EM9n0j08ZTbEFnFFzG/NmgeamdO5Wa/yV5rkbOnI181Iazx29j0943leyZtv2+OTmrlk//2v0vLL0/OnkTX5h5hQ9z1Ot1/1lLOt4T/Tt+lYMvLZryueXnrOm574Yft/n4vTzO2o+L7s0YvmGbFzQnokzhwox1JuPwhxOqPn8LfHe7pH/6b42bsrvbNqJ3013fz1u6z4wryebU+1D9WS8Ztv2+OTtO+KvLj4/ir9p1HZteyxqXxSvPP7b0Te3y7paY1nXsornne4/Haf7h2L45HAc+JffxTV3vC/arm2PE78drLndZme3UZON9dnOotykTxpyUzpJzO35TtxfNg7z+Vvi7q99IS5uQjGlWfOeue38k4aMToe5jZlYqLnZ9dKB2Lp2fXRevC4iqsfequjqiMhkumLd9esi+iof775+Q3RmMnHwpZ0x3XsyJ+EcrlHyC9O3MFLOrFt+1QfjhYc/NVrMXNSyPK7+NzviA3/2v6L71u1x+Qf+XVy77b/GB/7sf0bH6p6IKBY+X3j4U9G2+kM1t9nSmYnLt10Q54Yijv3fc3Hh2mxcevsc19VvvjbWZjJx8OD+yGTWx5aPrZvb9kbk891xcWdTmprVfeh7bEc8cbAQHZs+HDflXday0GQvyEbbde1x6NdvVnya33ZpW6zaeEWs3vKeWL3lPbFq4xXRdmnb6OPDJ4fj0K/fjLbr2iN7wfg/+/OS3QZMNtabkUW5WdjSkJviCVou9n5v+7iTm2z2qfjBl3fMecGzWfOeue38k4aMToe5jZlY0Ll5el8cLBSiY/3GWFM99m6+NrojF7lcITpWrhr3q5et7IxCoT/6D0/dTN9jO+L+L32hYt5MwjncbJBfqJ+i5/ko2xIDr++uuKT9qhv/fSxtvyoO7vxG9O7cEYf/9Z/ipZ/dF4Nv/ipWb/nL0eedGz4ZA6/vLt7pvXqzS4tfu//9ieJHge8OFiIzh+8t8/nu+GjPuigU9sfLvzgWuYkmTyq8dSwXEV1xcfeUTyVhlq5aFoVCIY69Urmu7pF9b8cL//xc5F7tj9yr/fHCPz8XR/a9XfGcY6+8E4VCIZauqvz0P6L52V2I5GbhWui5yW/5dGxdm4mBvT9s+mWxC4mMLlwLPaMLmdwsXAs7N4eifyAiOjbE+6vGXs816yIGXokDuRi5im/svG70Cr+BV+J5X26UX6iTqf88VFi2Ok699VzFz9qv2BxHX/5pnDj067HnnXs3Xn/2v8WKVZsrnnvqredi8bLVkTm1v3rLxX8XLNEH6QAAFXRJREFUIhZfmInM4kxEpvjf1X5/ahaukejeGOs6IqJ3X+zqPRQXD9wYN4xMnn19E/9aaV2V0b2eYD200jowJaV1Uyp/vj62/v2O2Bpjlx2MrdvynejvKa69Vsg9Ew9980fRl82Oa79829Wq96G0bulU+zBdpcsnS2ptb6LjMtl2ah3j0jeXqtfrqbU21lTHtNZ+1VrjtZ7Xl2QtlyyJ44ePj1ugvh6FfCGOHz4eLZcsiaG+U9WPFv/drOw2YLKx/pO4q64s5vZ8J/7T0Q/XlfvpkJtkW+i56bmm+OHe7kcORDQwXusZT6X+P/iz7fHyNf+x4vnlY7TeOWeysVLaRvUYK43TwsHH4qFjt5jbZLQhScjodJjb5GamFnJustneeH5/LjZt7oquyyNi5Lxt9FuYuSPx6EsH4obukYJe6byu+5LojOLjpb6ebDz03nxvxVqa9cxljZyn1Xp+oxmcq3EovzBG0fM8NHz8tRg4eqzyh5lMDLzxzLjnnhseityrv6z4Wf+rT0bHklOxZFHVk8vmwvLLIGpdEvHmD99teL+rla/pks1mRyfPWuu/lHRu/kx8JfdMfP+LDxQLkPlb4u6v3RG3Va2HVn4p4eN92eK3Su/501jz9I+i77Ed8aVHSotsT7weTGfPXdG5/4Gxtdey2eIf/2v2xf1f+u7o8266++tx29YvxB2Hx9ovX8S7tA8RxYni7i074wd17kO1fL473r++M2Lg2eInpNnSz4vHoXvg2fj+F8uLs5+JL68cm2gmPS5lx7M7DsQTXyzuU+m1VB/j6ah5TKc6Vruzdb++pFvUujhO5U5P+/eHTwzH0s628Q80ObuNmDxvdWaxztxPRG7kZr5yM/atlmPxVgO/0+h4Wnv7joifbY/7HyobG2Xz0lTzXj1jpe+xHfHEyq/Hbd23xB1rdo5loWdd8YTnwZ3Rl33K3BYhow0yt5nbIkJuGjTfuel97pXIbboxuq+5NWL3yDEf+UJL766dEYcviYFYV3led/nKCdfzrDUeqk05l9V5njba5gwyONNxKL8LO780l+ukmDVnDhXizR++G8NH5/7T8tIf+kJhf7z8dPFnvY88VVwfZpK1Tao/Scpmn4qHHnw2BqIzbvjjW0e2PXKS2fvU6B/bbLY3Hn/o4dHfq0dHvBI/eeRAxc+yfQ/HP1b9Md71i8r2IyK6P3ZXbOrMRO8TlRNKdvd3Z3SXvp57Ru6G+OMfVbyWnnuKk9rPy4/N7u/GEwcLEd23xB1r8nUdl+J2cvGrB8feRGSzvfHoNx+P3uiMG/7kT2e0/ECtY1rPsarn9Z3PmpndiOKbxPu/+o2a/5R/sjtb6sn9ZORGbmppSm5qfKtlKtMZT4WDj432ezbbG4/+uP58jLU59Vipnu+6P3ZXzWw1SkZltBZz2+TkRm5qaVpueo9ELiKi85LRcdB9/YboiFxxvc7e38SBgahY17N05UPp3K9crfHQqHrP00pmksGZjkP5lV/q55ue56GWFauj68Lrov/VJ8d+WChEx5U3xdA7L1c8d1FLa6xYtbni255d7/lgLD71YsS4y9ub6OYPF78Of3Bf2R/ip+Ll3jti7dr18d6bI57ZPf7XBvb/ZvyJVe9v4sDAjXHDyN3fR+9lP8O7wddsq0rpa/+dmUyU3lqMFnRzz8Qvn44ZfTTRufkzcX/Z6gSFg4/FV778VMVGxya+feNe61vHcpFZO3LpSenLsxMcl1oTaEmpb7q7p15+YDLVx7SeY1X365vmPjXTuaHfR0vb+PV069XS1hLnhn4/i3s0PZNdgrJm2/a4e9Pstjdp7kfebJc/LjdyUy4puanHdMdTb/W3ZkZORjsaanPqsZLtezh+sndDfHLztvjElojY1BnR+3jD3xaRURktl5SMmtuixnbkZq4s9NzUGgeXrRz75mI22xtHR9f13Bm7Yl3x0vcJrnyo57yrUbXO06Zss+q8stZ55HTGofymK780l6LneShz+rW4cN2fVxQ9B9/cExddvTVOHHl+dF3PzKIL4qob/0OsWPVHFUXPCy+7PoZfeKLp+12u55riXdqrT9R2vXQgtq5dX3mpRJnc0QNR/Vd0dFIdPbsrLq69trO41suWaa4RUqut0lfy12bGr4szanSt0vq/2TPhPpTte3Htk23xiZHLA8baK36TKLN2W9z/1W2TbG2K4zKynYFjh2r+9lvHchEzXGh73DGt51jV/fqSb/jI2Wjf3BWZbKbhNZwy2UysuHxFDO7pn6O9S65Jc9+9Mi6LyvdHchNyM2Lec9NA8TEiZn881SicTNRmvWOl95Efxt7198am27cV1wZ7cGdDa5VGyGj5fsmoua2cuS3kpg5JyU3pvK3r8oh8b6mgNdZ/u146ELeV1vWMYv8O7K1d3KyVh0bVdZ42RZvjzytrmMY4lN9IVX5pLkXP81F+ODqu2hKH/t9Do3dwf/3Z/x7r/vhLsfbWL8TxQ7+KM8cPRcfqnmhp7Yq+Xf959FcXtSyPjqu2xJHnhudr78c+5YniOmT3317jSWVrhk29vZFFs0eUvrrfNTLplT5Zm+kCycV1SorbLBT6Rxd7HlszZW7tevCBuPjz98YNW++Nm54evz5UrUWix2Tn7Lg0y1SvbyE4c+h0dGQysXLDRfHOy0dHf37JtZfGJdddGouXXhAREW2XtcWRF9+uuFvnyg0XRSaTiTOHpr/+U5pU534iciM385ub4olJ9wyvPGiGaY2VBtYqnYiMyqi5bYy5rT5yk5DcHD4WucK64pdVDhcLWhVfaDl8bGxdz6Mj63nOQnGzltk6T6s3gxHTH4fyu/DzS3Mpep6nTr7+ZPzBnd+Lvl3fioHXdsW54ZPxu/+9veI5h//1nyr+v2N1T6zpuS8GX/2XKbd/9sjcrafR/bFbYm0mM+Gd9Ep3hat1Q6POi9fF2Hf6S1ZFV0dUnHxls0/FD778VMUnfh2b7oo7npvBos0jn2CN/aGeYDulb/bU8w2bBmSzvfHorgOx6fb1cds9t8YzpcmigfYmOy6Pjmyne+WqGH+MRy5ZiQNxtGyx7RmrZ9/n6HjOh/y7+Tjx4mCs+sMr4vibgzF8svjhw4m3T8Tv3628ROl0/9gb2ZblLbHqD6+IEy8ORv7dybM5l9mdL/Xmvha5kZv5zM3YHW4nXralQlLHU5nSOp579/THps03xcc/9psZnWTJqIya28qZ2+RmAeWmbDmGnus3REcciN3llzaXHl+/MT66smw9z7notnrP08pMO4MzHIfyu/DzS3MZKeepoRf/S5weeDWu2vLZ6FjdM+XzO1b3xFVbPhunB16N07/99pTPf+eX5yb9Z7pq3cBonKf3FW9otH7juAWWa/0sbr421mYyNddlKU4IfxPf39MfmczIOiGzbaT98jZf7o2IjuJaKbOptNBzZu22+MSW/LTbq3VcRrdTYxHpWmuwvHUsV/OYdl+/ITrrvKyknn2fy+M5H07sG4xzg+di3UeujpblxbWcTvcPRf/+YxX/nO4fiojim9t1H7k6zg2eixP7Bqfc/lxldz41mvtqclPf60uyhZyb3kd+GHtzhejeeu+EN+kraXQ8zYZGxkp+zZ3x8U2dxXXCHivmqmPTXTO+8YCM1vf6kmwhZ3S+mNvG74fcLKzclD7Yi44NsWV957hC4dil4htiXWfM+vxVl6rztHLTzeBsjEP5re/1QYSi5/nr3FAc3/O3MTx4KNb03BeLWpZP+NRFLctjTc99MTx4KI7v+duIc0NN3NEqo+t9TDzplf4gZjpvig/dXPlYpvOmuPuesbvp5dfcGX+9dV0Ucs+M3kEun78lPnH3LRW/d9nKykJraZLOZIrfvqnLyF0Ii4tG5yvar7brwZE7493zhYrJJr/l02UT2zT2IYp3IcwVCtHdM3bXvdE7E95TeVKd3/Lp+PLIsajnuIzt99h2SpeLdMeB4tptpcPx3Cvj9mP0hLgB9Ryrel7fglGIOPbkkciezcQ1d1wXF119cWSy499QZLKZuOjqi+OaO66L7NlMHHvySNRchX0BmGys15ODenI/FbmRm/kydrfUdbH173eM9k9Jfs2d8Vdf2T52h/QGxlOj+zFR1urLQnd89E9ujI7Ixa9+sbPy98ruAmtuq25TRsslMaPTZW6TmxlLQW56jxaLbZ2dtQuFu146MPb4BGtMNmLCbDVwnlYykwzOxjiU3wWeX5oms3rN2ln5k9fVuSL6c8dnY1Pz2saVV1wWb7w50xWmJtesY3XbbbfF3r1748yZMxM/cVFrLHvf56Jt9Ydi8LVdcfLt56O/r/hHrGvNrbH80vdH++qeOP7aL+PMb7/dtILn2bPDsWTJ+DsSFhdunvjS9pLSJe6lSxRK/5/b853YvfLe2Lp27A1BrXVBSs8ffU7umXjomz8ad5e5j37+3tjUWdxWaR2U0u/W2sfqBbILhf3x87/bF+/92h3R3fv4uP0ovd6J9nXCfRi522DsfaDmZYNrtm2PT27uqthercW7x7U3jeMy0fMiKu+KOPq8H0d8vGrfJzum9R+rqV/fZJYsWRKbN2+ORx79aZw6dWrK588k53/x5/926uxmItqubY+269ojX4g4cXgwzp48W9zX5Uui7fL2yGYiTrw4WPw0v0lvbifKbkRMOS4jxu5wW1pLafR3Jxjrkz3WcO7lZtZzE1E7O3MxD6Y1N+Wqx1LEzMZTaUxXj5HRNcwGnq34nclzOPlYKY216jXDaufK3FaStLmtEdU5T2tGzW0jj59HuYmYeXbqnQfTmpuS8r6oee40Mi46IjcuPxGTj4eJHpswW3Wep033vHKiuXbSnMlvIvNbL/WrZLSh6FklTYOmrqJnuWxLxLIr48zgGxERsbT9yojTb0Tkm3/TonpPAKFZElf0HJG5IBtLVy2LJZcujezSRRERkT9zLs6+fSbOHDodhSnWa5ptScpu+ZvShbAwe1olqug5Qm6gKHFFzxEyOjFzWzIkqug5Qm6gPoqejVnotT43MmJMfjji1MFYWhoVpw7O6+4AUyu8m4/TfafidN/cTdiQNnIDySaj0Di5ARjPmp4AAAAAQKos7upcMWsbm81taQNIsnoyLOdQqTwT8gHJM9u5lHPOB9Md5/IB82+uc5iW2tJCbmPxbF03v9Cv8y9pbW1NxeswicLcmirDzcg5k8vu/m7cv3u+94JypUzIByTTbOZSzueGuS15pjPO5QOSYS5zqH6VjDZc3g4AAAAApIqiJwAAAACQKoqeAAAAAECqKHoCAAAAAKmyeL53gLnV0tIShUJhvnejYZlMNlpaLpjv3YBRS5YsaWp7sktaNDM7cgONMbfVR0apZm6bmtyQVM2e+5hfip4pd/3118/3LgDTILvQOLmBZJNRaJzcAEyfomeKPfLoT+d7FyB1hoaG5rwN2SWN5jo7cgPTZ26D6TG3wcLVjLmP+afomWKnTp2a0+13da6I/tzxOW3jyisuizfefGtO22jG60hLG/qjOerNrv5IVhv6Y35V50Z/JKsN/ZGsNprRH9Xm4n2p/qhfWo5VWvqjXjPJjf6oX1qOlf5orI1TpxbeshE0zo2MAAAAAIBUUfQEAAAAAFJF0RMAAAAASBVFTwAAAAAgVRQ9AQAAAIBUUfQEAAAAAFJF0RMAAAAASBVFTwAAAAAgVRQ9AQAAAIBUUfQEAAAAAFJF0RMAAAAASBVFTwAAAAAgVRQ9AQAAAIBUUfQEAAAAAFJF0RMAAAAASJXMzTffXJjvnQAAAAAAmC2L33jzrVnZUFfniujPHZ+Vbc1nG1decVnM1jGZSFqOlf44/9rQH8lqQ38kqw39kaw29Eey2tAfyWpDfySrDf2RrDb0R7La0B/JakN/JKsN/TE1l7cDAAAAAKmi6AkAAAAApIqiJwAAAACQKoqeAAAAAECqKHoCAAAAAKmi6AkAAAAApIqiJwAAAACQKoqeAAAAAECqKHoCAAAAAKmi6AkAAAAApIqiJwAAAACQKoqeAAAAAECqKHoCAAAAAKmi6AkAAAAApIqiJwAAAACQKoqeAAAAAECqKHoCAAAAAKmi6AkAAAAApIqiJwAAAACQKoqeAAAAAECqKHoCAAAAAKmi6AkAAAAApIqiJwAAAACQKpmNGzcW5nsnkqS1tTWGhobmezcYoT+SRX8ki/5IFv2RLPojWfRHsuiPZNEfyaI/kkV/JIv+SBb9MbXF/bnjs7Khrs4VMVvbms82WltbU/E60tKG/khWG/ojWW3oj2S1oT+S1Yb+SFYb+iNZbeiPZLWhP5LVhv5IVhv6I1lt6I9ktaE/pubydgAAAAAgVRQ9AQAAAIBUUfQEAAAAAFJF0RMAAAAASBVFTwAAAAAgVRQ9AQAAAIBUUfQEAAAAAFJF0RMAAAAASBVFTwAAAAAgVRQ9AQAAAIBUUfQEAAAAAFJF0RMAAAAASBVFTwAAAAAgVRQ9AQAAAIBUUfQEAAAAAFJF0RMAAAAASBVFTwAAAAAgVRQ9AQAAAIBUUfQEAAAAAFJF0RMAAAAASBVFTwAAAAAgVRQ9AQAAAIBUUfQEAAAAAFIls3HjxsJ870SStLa2xtDQ0HzvBiP0R7Loj2TRH8miP5JFfySL/kgW/ZEs+iNZ9Eey6I9k0R/Joj+mtrg/d3xWNtTVuSJma1vz2UZra2sqXkda2tAfyWpDfySrDf2RrDb0R7La0B/JakN/JKsN/ZGsNvRHstrQH8lqQ38kqw39kaw29MfUXN4OAAAAAKSKoicAAAAAkCqKngAAAABAqih6AgAAAACpougJAAAAAKSKoicAAAAAkCqKngAAAABAqih6AgAAAACpougJAAAAAKSKoicAAAAAkCqKngAAAABAqih6AgAAAACpougJAAAAAKSKoicAAAAAkCqKngAAAABAqih6AgAAAACpougJAAAAAKSKoicAAAAAkCqKngAAAABAqih6AgAAAACpougJAAAAAKSKoicAAAAAkCqKngAAAABAqmQ2btxYmO+dSJLW1tYYGhqa791ghP5IFv2RLPojWfRHsuiPZNEfyaI/kkV/JIv+SBb9kSz6I1n0x9QW9+eOz8qGujpXxGxtaz7baG1tTcXrSEsb+iNZbeiPZLWhP5LVhv5IVhv6I1lt6I9ktaE/ktWG/khWG/ojWW3oj2S1oT+S1Yb+mJrL2wEAAACAVFH0BAAAAABSRdETAAAAAEgVRU8AAAAAIFUUPQEAAACAVFH0BAAAAABSRdETAAAAAEgVRU8AAAAAIFUUPQEAAACAVFH0BAAAAABSRdETAAAAAEgVRU8AAAAAIFUUPQEAAACAVFH0BAAAAABSRdETAAAAAEgVRU8AAAAAIFX+P0aH37lkkzrVAAAAAElFTkSuQmCC;" parent="1" vertex="1">
          <mxGeometry x="580" y="730" width="731" height="290" as="geometry" />
        </mxCell>
        <mxCell id="1tA3rzychsuyHtGAXH-3-25" value="内置的Resource" style="rounded=1;whiteSpace=wrap;html=1;sketch=1;hachureGap=4;jiggle=2;curveFitting=1;fontFamily=Architects Daughter;fontSource=https%3A%2F%2Ffonts.googleapis.com%2Fcss%3Ffamily%3DArchitects%2BDaughter;fontSize=20;fillColor=#d5e8d4;strokeColor=#82b366;" parent="1" vertex="1">
          <mxGeometry x="410" y="1370" width="120" height="60" as="geometry" />
        </mxCell>
        <mxCell id="1tA3rzychsuyHtGAXH-3-26" value="UrlResource" style="rounded=1;whiteSpace=wrap;html=1;sketch=1;hachureGap=4;jiggle=2;curveFitting=1;fontFamily=Architects Daughter;fontSource=https%3A%2F%2Ffonts.googleapis.com%2Fcss%3Ffamily%3DArchitects%2BDaughter;fontSize=20;fillColor=#dae8fc;strokeColor=#6c8ebf;" parent="1" vertex="1">
          <mxGeometry x="700" y="1060" width="120" height="60" as="geometry" />
        </mxCell>
        <mxCell id="1tA3rzychsuyHtGAXH-3-27" value="ClassPathResource" style="rounded=1;whiteSpace=wrap;html=1;sketch=1;hachureGap=4;jiggle=2;curveFitting=1;fontFamily=Architects Daughter;fontSource=https%3A%2F%2Ffonts.googleapis.com%2Fcss%3Ffamily%3DArchitects%2BDaughter;fontSize=20;fillColor=#f8cecc;strokeColor=#b85450;" parent="1" vertex="1">
          <mxGeometry x="700" y="1160" width="120" height="60" as="geometry" />
        </mxCell>
        <mxCell id="1tA3rzychsuyHtGAXH-3-28" value="FileSystemResource" style="rounded=1;whiteSpace=wrap;html=1;sketch=1;hachureGap=4;jiggle=2;curveFitting=1;fontFamily=Architects Daughter;fontSource=https%3A%2F%2Ffonts.googleapis.com%2Fcss%3Ffamily%3DArchitects%2BDaughter;fontSize=20;fillColor=#d5e8d4;strokeColor=#82b366;" parent="1" vertex="1">
          <mxGeometry x="700" y="1270" width="120" height="60" as="geometry" />
        </mxCell>
        <mxCell id="1tA3rzychsuyHtGAXH-3-29" value="PathResource" style="rounded=1;whiteSpace=wrap;html=1;sketch=1;hachureGap=4;jiggle=2;curveFitting=1;fontFamily=Architects Daughter;fontSource=https%3A%2F%2Ffonts.googleapis.com%2Fcss%3Ffamily%3DArchitects%2BDaughter;fontSize=20;fillColor=#e1d5e7;strokeColor=#9673a6;" parent="1" vertex="1">
          <mxGeometry x="690" y="1370" width="120" height="60" as="geometry" />
        </mxCell>
        <mxCell id="1tA3rzychsuyHtGAXH-3-30" value="ServletContentResource" style="rounded=1;whiteSpace=wrap;html=1;sketch=1;hachureGap=4;jiggle=2;curveFitting=1;fontFamily=Architects Daughter;fontSource=https%3A%2F%2Ffonts.googleapis.com%2Fcss%3Ffamily%3DArchitects%2BDaughter;fontSize=20;fillColor=#fff2cc;strokeColor=#d6b656;" parent="1" vertex="1">
          <mxGeometry x="690" y="1490" width="120" height="60" as="geometry" />
        </mxCell>
        <mxCell id="1tA3rzychsuyHtGAXH-3-31" value="InputStranmResource" style="rounded=1;whiteSpace=wrap;html=1;sketch=1;hachureGap=4;jiggle=2;curveFitting=1;fontFamily=Architects Daughter;fontSource=https%3A%2F%2Ffonts.googleapis.com%2Fcss%3Ffamily%3DArchitects%2BDaughter;fontSize=20;" parent="1" vertex="1">
          <mxGeometry x="690" y="1610" width="120" height="60" as="geometry" />
        </mxCell>
        <mxCell id="1tA3rzychsuyHtGAXH-3-32" value="ByteArrayResource" style="rounded=1;whiteSpace=wrap;html=1;sketch=1;hachureGap=4;jiggle=2;curveFitting=1;fontFamily=Architects Daughter;fontSource=https%3A%2F%2Ffonts.googleapis.com%2Fcss%3Ffamily%3DArchitects%2BDaughter;fontSize=20;" parent="1" vertex="1">
          <mxGeometry x="690" y="1724" width="120" height="60" as="geometry" />
        </mxCell>
      </root>
    </mxGraphModel>
  </diagram>
</mxfile>
